# Blender v2.69 (sub 0) OBJ File: 'island.blend'
# www.blender.org
mtllib island.mtl
o Cube_Cube.001
v -11.324858 1.457821 15.678559
v -18.064581 1.457821 -9.257448
v 14.969772 1.457821 -6.640376
v 14.969768 1.457821 24.982740
v -11.324862 0.205656 15.678555
v -18.064575 0.205656 -9.257455
v 14.969776 0.205656 -4.302932
v 14.969771 0.205656 27.320177
v -5.011721 1.457829 -18.566681
v 14.969776 1.457829 -26.072916
v -5.011715 0.205663 -18.566687
v 14.969778 0.205663 -26.072910
v 38.977360 1.457831 -11.140723
v 32.015430 1.457831 15.678568
v 38.977360 0.205665 -11.140722
v 32.015430 0.205665 15.678563
v 32.015438 1.457838 -18.566673
v 32.015438 0.205672 -18.566671
v -9.848081 1.457810 41.425362
v 16.446547 1.457810 43.467628
v -9.848085 0.205644 41.425346
v 16.446547 0.205644 43.467621
v 33.492207 1.457820 39.108517
v 33.492207 0.205654 39.108509
v 47.730003 1.457837 -5.020026
v 47.729992 1.457837 14.961471
v 47.730003 0.205672 -5.020025
v 47.730000 0.205672 14.961466
v 49.206776 1.457826 23.809244
v 49.206776 0.205660 23.809238
v -27.741129 1.457831 13.908461
v -21.427996 1.457831 -6.236564
v -27.741137 0.205665 13.908455
v -21.427988 0.205665 -6.236572
v -26.264351 1.457820 45.491219
v -26.264359 0.205654 45.491219
v -43.948826 1.457839 12.160847
v -37.635696 1.457839 1.310841
v -43.948830 0.205674 12.160844
v -37.635689 0.205674 1.310834
v -42.472050 1.457829 28.308296
v -42.472050 0.205663 28.308289
v -18.064581 1.457821 -9.257448
v -18.064575 0.205656 -9.257455
v 14.969776 0.205656 -4.302932
v -5.011721 1.457829 -18.566681
v -5.011715 0.205663 -18.566687
v 14.969778 0.205663 -26.072910
v -18.064581 1.457821 -9.257448
v -18.064575 0.205656 -9.257455
v 14.969776 0.205656 -4.302932
v -5.011721 1.457829 -18.566681
v -5.011715 0.205663 -18.566687
v 14.969778 0.205663 -26.072910
v -18.064581 1.457821 -9.257448
v -18.064575 0.205656 -9.257455
v 14.969776 0.205656 -4.302932
v -5.011721 1.457829 -18.566681
v -5.011715 0.205663 -18.566687
v 14.969778 0.205663 -26.072910
v -18.064581 1.457821 -9.257448
v -18.064575 0.205656 -9.257455
v -21.427996 1.457831 -6.236564
v -21.427988 0.205665 -6.236572
v -18.064581 1.457821 -9.257448
v -18.064575 0.205656 -9.257455
v -21.427996 1.457831 -6.236564
v -21.427988 0.205665 -6.236572
v -9.097200 1.457818 -23.805408
v 10.884299 1.457818 -31.311640
v -9.097193 0.205653 -23.805410
v 10.884300 0.205653 -31.311636
v -16.173058 1.457811 -14.171661
v -16.173052 0.205645 -14.171670
v -9.097200 1.457818 -23.805408
v -9.097193 0.205653 -23.805410
vt 0.368841 0.308406
vt 0.290072 0.455293
vt 0.286611 0.148313
vt 0.836879 0.400178
vt 0.692967 0.283049
vt 1.000000 0.365943
vt 0.684501 0.467051
vt 0.709174 0.573352
vt 0.000000 0.000000
vt 1.000000 0.126761
vt 0.874813 0.190484
vt 0.906941 0.050713
vt 0.710016 0.150953
vt 0.595789 0.321823
vt 0.138918 0.492338
vt 0.067022 0.566721
vt 0.105750 0.499705
vt 0.146599 0.296749
vt 0.060562 0.387964
vt 0.013785 0.277260
vt 0.187587 0.441198
vt 0.262210 0.000000
vt 0.165406 0.116516
vt 0.088468 0.050306
vt 0.189826 0.714148
vt 0.181746 0.714148
vt 0.189826 0.648704
vt 0.181746 0.534544
vt 0.189826 0.534544
vt 0.181746 0.648704
vt 0.843860 0.032415
vt 0.361521 0.055008
vt 0.013985 0.211580
vt 0.530047 0.886630
vt 0.521967 0.886630
vt 0.530046 0.737073
vt 0.521967 0.737073
vt 0.530046 0.625173
vt 0.570961 0.211044
vt 0.668141 0.058489
vt 0.475903 0.181014
vt 0.570961 0.234612
vt 0.181746 0.782549
vt 0.189826 0.782549
vt 0.181746 0.868785
vt 0.189826 0.868785
vt 0.181746 0.914055
vt 0.521967 0.625173
vt 0.530047 0.492338
vt 0.895111 0.489398
vt 0.952602 0.577483
vt 0.438060 0.389397
vt 0.506400 0.469360
vt 0.521967 0.994051
vt 0.189826 0.492338
vt 0.197906 0.492338
vt 0.197906 0.570660
vt 0.521967 0.729856
vt 0.513887 0.729856
vt 0.513887 0.644585
vt 0.513887 0.492338
vt 0.521967 0.492338
vt 0.992474 0.394127
vt 0.197906 0.679022
vt 0.189826 0.679022
vt 0.189826 0.570659
vt 0.319235 0.456005
vt 0.138918 0.707878
vt 0.181746 0.492338
vt 0.181746 0.595788
vt 0.163017 0.567439
vt 0.214065 0.492338
vt 0.222145 0.492338
vt 0.222145 0.521466
vt 0.505807 0.492338
vt 0.505807 0.617721
vt 0.205986 0.568585
vt 0.197906 0.568585
vt 0.505807 0.534544
vt 0.497727 0.534544
vt 0.205986 0.599645
vt 0.197906 0.599645
vt 0.530047 0.630067
vt 0.570961 0.642857
vt 0.205986 0.492338
vt 0.205986 0.535158
vt 0.183569 0.483877
vt 0.037503 0.535637
vt 0.120710 0.002237
vt 0.612940 0.075895
vt 0.189826 0.914055
vt 0.783043 0.000000
vt 0.000000 0.144097
vt 0.855425 0.616257
vt 0.570961 0.387027
vt 0.530047 0.994051
vt 0.521967 0.644585
vt 0.996515 0.509421
vt 0.428729 0.492338
vt 0.000000 0.687043
vt 0.138918 0.494172
vt 0.214065 0.521466
vt 0.513887 0.617721
vt 0.497728 0.492338
vt 0.570961 0.505128
vt 0.214065 0.535158
vt 0.056544 0.430642
vn 0.000000 -1.000000 0.000000
vn 0.000000 1.000000 0.000000
vn 0.000001 1.000000 0.000000
vn 0.000000 0.000000 1.000000
vn -0.000001 1.000000 0.000000
vn -0.000000 1.000000 0.000001
vn -0.000003 1.000000 -0.000003
vn 0.000001 -1.000000 -0.000000
vn 0.000000 -1.000000 -0.000001
vn -0.729533 0.000000 0.683946
vn -0.403015 0.000004 0.915193
vn 0.077436 0.000012 -0.996997
vn -0.247758 0.000006 -0.968822
vn -0.000001 -1.000000 -0.000000
vn -1.000000 0.000000 -0.000001
vn -0.986355 -0.000011 0.164633
vn -0.697575 0.000004 -0.716511
vn -0.573076 0.000005 0.819502
vn -0.240408 0.000012 -0.970672
vn 0.864334 0.000000 0.502918
vn 0.995844 -0.000012 -0.091076
vn 0.727449 0.000000 -0.686162
vn 0.422142 -0.000001 0.906530
vn 0.000003 -1.000000 0.000003
vn 0.668208 0.000001 0.743974
vn 0.351664 0.000001 0.936126
vn 0.805961 0.000000 0.591968
vn -0.788555 -0.000006 0.614964
vn 0.933254 0.000005 0.359217
vn -0.000001 1.000000 -0.000001
vn -0.788555 0.000004 0.614964
vn 0.788555 0.000006 -0.614964
vn 0.000001 -1.000000 0.000001
vn -0.000002 1.000000 -0.000001
vn -0.000001 -1.000000 -0.000001
vn -0.403015 0.000001 0.915193
vn 0.077435 0.000006 -0.996997
vn 0.000001 1.000000 0.000001
vn -1.000000 -0.000013 -0.000000
vn -0.986355 -0.000001 0.164632
vn -0.697576 0.000003 -0.716511
vn -0.573076 -0.000002 0.819503
vn -0.240409 0.000001 -0.970672
vn 0.000004 1.000000 0.000001
vn -0.000004 -1.000000 -0.000001
vn 0.864334 0.000000 0.502917
vn 0.995844 0.000000 -0.091076
vn 0.727449 0.000005 -0.686162
vn 0.422142 -0.000003 0.906530
vn 0.000002 -1.000000 0.000001
vn 0.668208 -0.000001 0.743974
vn 0.351664 0.000003 0.936126
vn 0.805961 0.000004 0.591968
vn 0.933254 0.000002 0.359218
vn -0.788555 0.000000 0.614964
vn 0.788556 0.000006 -0.614964
vn 0.000001 -1.000000 0.000002
usemtl dsdsd
s off
f 1/1/1 2/2/1 4/3/1
f 5/4/2 8/5/2 6/6/2
f 21/7/3 5/4/3 36/8/3
f 7/9/4 12/9/4 45/9/4
f 12/10/5 7/11/5 18/12/5
f 16/13/6 8/5/6 22/14/6
f 56/15/7 59/16/7 74/17/7
f 3/18/8 10/19/8 17/20/8
f 9/9/4 2/9/4 46/9/4
f 3/18/9 2/2/9 9/21/9
f 23/22/1 14/23/1 26/24/1
f 15/25/10 13/26/10 18/27/10
f 10/28/11 12/29/11 17/30/11
f 7/11/2 8/5/2 15/31/2
f 4/3/9 14/23/9 20/32/9
f 4/3/1 3/18/1 13/33/1
f 21/34/12 19/35/12 22/36/12
f 22/36/13 20/37/13 24/38/13
f 16/13/6 24/39/6 28/40/6
f 8/5/6 5/4/6 22/14/6
f 1/1/14 19/41/14 35/42/14
f 1/1/9 4/3/9 20/32/9
f 25/43/15 27/44/15 26/45/15
f 26/45/16 28/46/16 29/47/16
f 24/38/17 23/48/17 30/49/17
f 15/31/2 16/13/2 28/40/2
f 13/26/18 15/25/18 25/43/18
f 14/23/1 13/33/1 26/24/1
f 36/8/3 33/50/3 39/51/3
f 31/52/1 35/42/1 37/53/1
f 19/35/19 21/34/19 35/54/19
f 5/4/3 6/6/3 33/50/3
f 2/9/4 32/9/4 61/9/4
f 2/2/14 1/1/14 31/52/14
f 37/55/20 39/56/20 40/57/20
f 39/58/21 37/59/21 41/60/21
f 35/61/22 36/62/22 41/60/22
f 33/50/3 34/63/3 39/51/3
f 34/64/23 32/65/23 38/66/23
f 32/67/14 31/52/14 37/53/14
f 45/9/4 48/9/4 51/9/4
f 46/9/4 43/9/4 52/9/4
f 12/9/4 11/9/4 48/9/4
f 11/9/4 9/9/4 47/9/4
f 6/9/4 7/9/4 44/9/4
f 2/9/4 6/9/4 43/9/4
f 51/9/4 54/9/4 57/9/4
f 52/9/4 49/9/4 58/9/4
f 48/9/4 47/9/4 54/9/4
f 47/9/4 46/9/4 53/9/4
f 44/9/4 45/9/4 50/9/4
f 43/9/4 44/9/4 49/9/4
f 56/15/6 57/68/6 59/16/6
f 58/69/24 55/70/24 73/71/24
f 54/9/4 53/9/4 60/9/4
f 53/9/4 52/9/4 59/9/4
f 50/9/4 51/9/4 56/9/4
f 49/9/4 50/9/4 55/9/4
f 61/9/4 63/9/4 65/9/4
f 34/9/4 6/9/4 64/9/4
f 32/9/4 34/9/4 63/9/4
f 6/9/4 2/9/4 62/9/4
f 66/72/25 65/73/25 67/74/25
f 64/9/4 62/9/4 68/9/4
f 63/9/4 64/9/4 67/9/4
f 62/9/4 61/9/4 66/9/4
f 69/75/26 71/61/26 70/76/26
f 73/77/27 74/78/27 76/56/27
f 59/79/28 58/80/28 76/75/28
f 55/81/29 56/82/29 74/78/29
f 11/83/30 12/49/30 71/84/30
f 12/29/31 10/28/31 70/69/31
f 9/85/32 11/72/32 69/86/32
f 10/19/33 9/21/33 69/87/33
f 2/2/1 3/18/1 4/3/1
f 8/5/2 7/11/2 6/6/2
f 5/4/3 33/50/3 36/8/3
f 12/9/4 48/9/4 45/9/4
f 7/11/6 15/31/6 18/12/6
f 24/39/6 16/13/6 22/14/6
f 59/16/34 76/88/34 74/17/34
f 13/33/9 3/18/9 17/20/9
f 2/9/4 43/9/4 46/9/4
f 10/19/1 3/18/1 9/21/1
f 29/89/35 23/22/35 26/24/35
f 13/26/10 17/30/10 18/27/10
f 12/29/36 18/27/36 17/30/36
f 8/5/5 16/13/5 15/31/5
f 14/23/9 23/22/9 20/32/9
f 14/23/8 4/3/8 13/33/8
f 19/35/37 20/37/37 22/36/37
f 20/37/13 23/48/13 24/38/13
f 24/39/38 30/90/38 28/40/38
f 5/4/2 21/7/2 22/14/2
f 31/52/14 1/1/14 35/42/14
f 19/41/1 1/1/1 20/32/1
f 27/44/39 28/46/39 26/45/39
f 28/46/40 30/91/40 29/47/40
f 23/48/41 29/62/41 30/49/41
f 27/92/5 15/31/5 28/40/5
f 15/25/42 27/44/42 25/43/42
f 13/33/8 25/93/8 26/24/8
f 42/94/6 36/8/6 39/51/6
f 35/42/9 41/95/9 37/53/9
f 21/34/43 36/96/43 35/54/43
f 6/6/44 34/63/44 33/50/44
f 32/9/4 63/9/4 61/9/4
f 32/67/45 2/2/45 31/52/45
f 38/66/46 37/55/46 40/57/46
f 42/97/47 39/58/47 41/60/47
f 36/62/48 42/97/48 41/60/48
f 34/63/3 40/98/3 39/51/3
f 40/57/49 34/64/49 38/66/49
f 38/99/14 32/67/14 37/53/14
f 48/9/4 54/9/4 51/9/4
f 43/9/4 49/9/4 52/9/4
f 11/9/4 47/9/4 48/9/4
f 9/9/4 46/9/4 47/9/4
f 7/9/4 45/9/4 44/9/4
f 6/9/4 44/9/4 43/9/4
f 54/9/4 60/9/4 57/9/4
f 49/9/4 55/9/4 58/9/4
f 47/9/4 53/9/4 54/9/4
f 46/9/4 52/9/4 53/9/4
f 45/9/4 51/9/4 50/9/4
f 44/9/4 50/9/4 49/9/4
f 57/68/2 60/100/2 59/16/2
f 75/101/50 58/69/50 73/71/50
f 53/9/4 59/9/4 60/9/4
f 52/9/4 58/9/4 59/9/4
f 51/9/4 57/9/4 56/9/4
f 50/9/4 56/9/4 55/9/4
f 63/9/4 67/9/4 65/9/4
f 6/9/4 62/9/4 64/9/4
f 34/9/4 64/9/4 63/9/4
f 2/9/4 61/9/4 62/9/4
f 68/102/51 66/72/51 67/74/51
f 62/9/4 66/9/4 68/9/4
f 64/9/4 68/9/4 67/9/4
f 61/9/4 65/9/4 66/9/4
f 71/61/52 72/103/52 70/76/52
f 75/85/53 73/77/53 76/56/53
f 58/80/28 75/104/28 76/75/28
f 73/77/54 55/81/54 74/78/54
f 12/49/30 72/105/30 71/84/30
f 72/55/55 12/29/55 70/69/55
f 11/72/56 71/106/56 69/86/56
f 70/107/57 10/19/57 69/87/57
